<svg xmlns="http://www.w3.org/2000/svg" viewBox="0 0 24 24">
  <path fill="#ffffff" d="M12.525.02c1.31-.02 2.61-.01 3.91-.02.08 2.53.63 5.01 2.22 6.98 1.62 2.02 4.06 3.09 6.43 3.09v4.01c-2.25-.09-4.48-.7-6.44-1.88-.19 3.62.01 7.24-.02 10.86-.13 2.23-.83 4.44-2.07 6.24-2.13 3.07-5.69 4.84-9.38 4.81-3.83-.06-7.51-2.08-9.54-5.34-2.74-4.29-2.06-10.47 1.62-14.01 2.66-2.56 6.26-3.69 9.7-3.5.04 2.25-.05 4.5-.05 6.75-1.64-.51-3.38-.25-4.78.53-1.74.98-2.9 2.84-2.95 4.82-.12 2.43.61 4.98 2.26 6.78 1.51 1.64 3.72 2.52 5.94 2.48 1.92-.03 3.85-.79 5.28-2.12 1.4-1.3 2.1-3.02 2.19-4.83.09-1.39.05-2.78.06-4.16.01-4.59-.01-9.17.02-13.76z"/>
</svg>
