<svg xmlns="http://www.w3.org/2000/svg" viewBox="0 0 48 48" width="48" height="48">
  <path fill="#25F4EE" d="M33.5 14.2c-1.1-.7-2-1.7-2.6-2.9h.0c-.3-.6-.5-1.2-.6-1.9h-4.2v18.9c0 2.3-1.9 4.2-4.2 4.2-1.4 0-2.6-.7-3.4-1.7 1.3.5 2.8.4 4-.4 1.2-.8 1.9-2.1 1.9-3.6V7.4h4.2c.0.4.1.7.2 1.1.4 2.2 1.7 4.1 3.5 5.3.4.2.7.4 1.2.5z"/>
  <path fill="#FE2C55" d="M36.8 17.6v-3.4c-1.2.0-2.3-.3-3.3-.9.0.0.0.0.0.0v8.5c0 4.2-3.4 7.7-7.7 7.7-1.6 0-3.1-.5-4.3-1.4.8 1 2 1.7 3.4 1.7 2.3.0 4.2-1.9 4.2-4.2V6.5h4.2c.1.7.3 1.3.6 1.9.6 1.2 1.5 2.2 2.6 2.9.9.6 2 1 3.2 1.1.0.0.4 0 .9 0z"/>
  <path fill="#FFF" d="M18.9 19.9v-3.6c-.4-.1-.8-.1-1.2-.1-4.2 0-7.7 3.4-7.7 7.7 0 2.6 1.3 4.9 3.3 6.3-.8-1-1.3-2.3-1.3-3.8 0-4.2 3.4-7.6 7.5-7.7zm10.6-13.4h-4.2v20.6c0 2.3-1.9 4.2-4.2 4.2-1.4 0-2.6-.7-3.4-1.7-1.3-.7-2.2-2.1-2.2-3.7 0-2.3 1.9-4.2 4.2-4.2.4 0 .8.1 1.2.2v-3.6c-.4-.1-.8-.1-1.2-.1-.1 0-.1 0-.2 0v2.9c-.4-.1-.8-.2-1.2-.2-2.3 0-4.2 1.9-4.2 4.2 0 1.6.9 3 2.2 3.7.8 1 2 1.7 3.4 1.7 2.3 0 4.2-1.9 4.2-4.2V8.4c1 .6 2.1.9 3.3.9v-2.8z"/>
</svg>
